# xmcd CD database file
#
# Track frame offsets:
#	150
#	36794
#	62334
#	86676
#	136328
#	172342
#	194157
#	231171
#	256298
#	273295
#	285745
#
# Disc length: 4123 seconds
#
# Revision: 3
# Processed by: cddbd v1.5.1PL2 Copyright (c) Steve Scherf et al.
# Submitted via: CDex 1.51
#
DISCID=a310190b
DTITLE=Various Artisits - Blue Ballads
DYEAR=1900
DGENRE=Jazz
TTITLE0=A Child Is Born
TTITLE1=Since I fell For You
TTITLE2=Guess I'll Hang My Tears Out To Dry
TTITLE3=Autumn Leaves
TTITLE4=I'm Old Fashioned
TTITLE5=Cry Me Not
TTITLE6=Bouquet
TTITLE7=Lazy Afternoon
TTITLE8=Easy Living
TTITLE9=Nature Boy
TTITLE10=You Taught My Heart To Sing
EXTD=
EXTT0=
EXTT1=
EXTT2=
EXTT3=
EXTT4=
EXTT5=
EXTT6=
EXTT7=
EXTT8=
EXTT9=
EXTT10=
PLAYORDER=
